<?xml version="1.0" standalone="no"?>
<!DOCTYPE svg PUBLIC "-//W3C//DTD SVG 20010904//EN"
 "http://www.w3.org/TR/2001/REC-SVG-20010904/DTD/svg10.dtd">
<svg version="1.0" xmlns="http://www.w3.org/2000/svg"
 width="507.000000pt" height="465.000000pt" viewBox="0 0 507.000000 465.000000"
 preserveAspectRatio="xMidYMid meet">

<g transform="translate(0.000000,465.000000) scale(0.100000,-0.100000)"
fill="#000000" stroke="none">
<path d="M1135 4634 c-11 -3 -58 -12 -105 -21 -164 -30 -335 -98 -477 -189
-78 -50 -263 -237 -316 -319 -172 -268 -240 -573 -207 -930 44 -487 191 -821
598 -1360 104 -137 351 -414 567 -635 127 -129 234 -237 239 -239 5 -2 65 -56
135 -120 256 -236 647 -566 776 -654 22 -15 54 -39 72 -54 73 -63 123 -94 135
-87 53 31 392 302 682 545 336 283 970 918 1101 1104 11 16 31 41 45 56 14 15
63 80 110 144 47 65 100 138 119 163 104 141 263 435 319 592 44 124 48 141
81 305 54 267 60 424 27 651 -25 172 -86 362 -147 454 -9 14 -30 48 -47 75
-43 70 -176 213 -242 260 -182 132 -322 191 -564 239 -218 43 -406 30 -625
-43 -126 -42 -266 -117 -358 -190 -47 -38 -224 -213 -254 -252 -66 -85 -153
-223 -198 -317 -28 -56 -55 -102 -61 -102 -9 0 -21 23 -54 105 -36 88 -95 194
-154 275 -37 51 -74 103 -83 116 -22 33 -150 146 -234 206 -197 140 -488 229
-742 227 -65 -1 -127 -3 -138 -5z m2450 -385 c91 -23 175 -134 175 -233 0 -76
-29 -137 -98 -206 -37 -37 -87 -79 -111 -94 -130 -82 -296 -142 -426 -153 -66
-5 -72 -4 -102 21 -47 40 -50 76 -13 166 151 366 365 552 575 499z m-2479 -34
c166 -49 240 -179 185 -325 -30 -79 -66 -118 -215 -230 -73 -54 -160 -129
-194 -165 -93 -102 -178 -291 -212 -475 -15 -79 -33 -110 -63 -110 -32 0 -40
8 -75 73 -39 72 -84 197 -108 302 -26 115 -24 322 5 428 42 160 133 294 264
393 149 112 284 148 413 109z"/>
</g>
</svg>
